<svg width="14" height="16" viewBox="0 0 14 16" fill="none" xmlns="http://www.w3.org/2000/svg">
<path d="M12.625 2.07959H10.375V0.95459H9.25V2.07959H4.75V0.95459H3.625V2.07959H1.375C0.75625 2.07959 0.25 2.58584 0.25 3.20459V14.4546C0.25 15.0733 0.75625 15.5796 1.375 15.5796H12.625C13.2437 15.5796 13.75 15.0733 13.75 14.4546V3.20459C13.75 2.58584 13.2437 2.07959 12.625 2.07959ZM12.625 14.4546H1.375V6.57959H12.625V14.4546ZM12.625 5.45459H1.375V3.20459H3.625V4.32959H4.75V3.20459H9.25V4.32959H10.375V3.20459H12.625V5.45459Z" fill="#575757"/>
</svg>
