<svg width="12" height="11" viewBox="0 0 12 11" fill="none" xmlns="http://www.w3.org/2000/svg">
<path d="M11.0971 5.27266L6.22213 0.397663C6.01901 0.196206 5.74445 0.0832681 5.45838 0.0834964H1.66671C1.37939 0.0834964 1.10384 0.197633 0.900675 0.400797C0.697511 0.603962 0.583374 0.879512 0.583374 1.16683V4.9585C0.583261 5.10145 0.611441 5.24301 0.666291 5.37502C0.721141 5.50703 0.801575 5.62688 0.902958 5.72766L5.77796 10.6027C5.98107 10.8041 6.25563 10.9171 6.54171 10.9168C6.82856 10.9156 7.10323 10.8007 7.30546 10.5972L11.0971 6.80558C11.3006 6.60335 11.4155 6.32868 11.4167 6.04183C11.4168 5.89888 11.3886 5.75732 11.3338 5.62531C11.2789 5.4933 11.1985 5.37345 11.0971 5.27266ZM6.54171 9.8335L1.66671 4.9585V1.16683H5.45838L10.3334 6.04183M3.02087 1.7085C3.18157 1.7085 3.33866 1.75615 3.47228 1.84543C3.60589 1.93471 3.71003 2.0616 3.77153 2.21007C3.83302 2.35853 3.84911 2.5219 3.81776 2.67951C3.78641 2.83712 3.70903 2.98189 3.5954 3.09552C3.48177 3.20915 3.337 3.28653 3.17939 3.31788C3.02178 3.34924 2.85841 3.33315 2.70994 3.27165C2.56148 3.21015 2.43458 3.10601 2.34531 2.9724C2.25603 2.83878 2.20837 2.68169 2.20837 2.521C2.20837 2.30551 2.29398 2.09885 2.44635 1.94647C2.59872 1.7941 2.80539 1.7085 3.02087 1.7085Z" fill="#121111"/>
</svg>
