<svg width="36" height="36" viewBox="0 0 36 36" fill="none" xmlns="http://www.w3.org/2000/svg">
<path fill-rule="evenodd" clip-rule="evenodd" d="M0 18C0 8.05898 8.05898 0 18 0C27.941 0 36 8.05898 36 18C36 27.941 27.941 36 18 36C8.05898 36 0 27.941 0 18ZM11.7209 26.3721C11.7209 26.039 11.8532 25.7196 12.0888 25.4841C12.3243 25.2486 12.6437 25.1163 12.9767 25.1163H23.0233C23.3563 25.1163 23.6757 25.2486 23.9113 25.4841C24.1468 25.7196 24.2791 26.039 24.2791 26.3721C24.2791 26.7052 24.1468 27.0246 23.9113 27.2601C23.6757 27.4956 23.3563 27.6279 23.0233 27.6279H12.9767C12.6437 27.6279 12.3243 27.4956 12.0888 27.2601C11.8532 27.0246 11.7209 26.7052 11.7209 26.3721ZM24.7479 14.7014L18.8874 20.5619C18.652 20.797 18.3328 20.9291 18 20.9291C17.6672 20.9291 17.348 20.797 17.1126 20.5619L11.2521 14.7014C11.1287 14.5864 11.0297 14.4478 10.9611 14.2937C10.8925 14.1397 10.8556 13.9734 10.8526 13.8048C10.8496 13.6362 10.8806 13.4687 10.9438 13.3123C11.007 13.1559 11.101 13.0139 11.2202 12.8946C11.3395 12.7754 11.4815 12.6814 11.6379 12.6182C11.7943 12.5551 11.9617 12.524 12.1304 12.527C12.299 12.53 12.4653 12.5669 12.6193 12.6355C12.7734 12.7042 12.912 12.8031 13.027 12.9265L16.7442 16.6437V7.95349C16.7442 7.62043 16.8765 7.301 17.112 7.06549C17.3475 6.82998 17.6669 6.69767 18 6.69767C18.3331 6.69767 18.6525 6.82998 18.888 7.06549C19.1235 7.301 19.2558 7.62043 19.2558 7.95349V16.6437L22.973 12.9265C23.088 12.8031 23.2266 12.7042 23.3807 12.6355C23.5347 12.5669 23.701 12.53 23.8696 12.527C24.0383 12.524 24.2057 12.5551 24.3621 12.6182C24.5185 12.6814 24.6605 12.7754 24.7798 12.8946C24.899 13.0139 24.993 13.1559 25.0562 13.3123C25.1194 13.4687 25.1504 13.6362 25.1474 13.8048C25.1444 13.9734 25.1075 14.1397 25.0389 14.2937C24.9703 14.4478 24.8713 14.5864 24.7479 14.7014Z" fill="#2A2A29"/>
</svg>
