<svg width="23" height="23" viewBox="0 0 23 23" fill="none" xmlns="http://www.w3.org/2000/svg">
<circle cx="11.3641" cy="11.0521" r="11.0521" fill="#181717"/>
<path d="M11.2912 9.23346C10.8501 9.23346 10.4272 9.40866 10.1153 9.72052C9.80344 10.0324 9.62824 10.4553 9.62824 10.8964C9.62824 11.3374 9.80344 11.7604 10.1153 12.0722C10.4272 12.3841 10.8501 12.5593 11.2912 12.5593C11.7322 12.5593 12.1552 12.3841 12.467 12.0722C12.7789 11.7604 12.9541 11.3374 12.9541 10.8964C12.9541 10.4553 12.7789 10.0324 12.467 9.72052C12.1552 9.40866 11.7322 9.23346 11.2912 9.23346Z" fill="#FBFBFB"/>
<path fill-rule="evenodd" clip-rule="evenodd" d="M8.61513 6.33332C10.3937 6.13629 12.1886 6.13629 13.9672 6.33332C14.9388 6.44179 15.7222 7.20674 15.8363 8.18198C16.0471 9.98544 16.0471 11.8073 15.8363 13.6108C15.7222 14.586 14.9388 15.351 13.9677 15.46C12.189 15.657 10.3939 15.657 8.61513 15.46C7.64347 15.351 6.86011 14.586 6.746 13.6113C6.53519 11.8077 6.53519 9.98561 6.746 8.18198C6.86011 7.20674 7.64347 6.44179 8.61513 6.33332ZM13.8495 7.82637C13.7138 7.82637 13.5837 7.88028 13.4877 7.97623C13.3917 8.07219 13.3378 8.20233 13.3378 8.33804C13.3378 8.47374 13.3917 8.60389 13.4877 8.69984C13.5837 8.7958 13.7138 8.84971 13.8495 8.84971C13.9852 8.84971 14.1154 8.7958 14.2113 8.69984C14.3073 8.60389 14.3612 8.47374 14.3612 8.33804C14.3612 8.20233 14.3073 8.07219 14.2113 7.97623C14.1154 7.88028 13.9852 7.82637 13.8495 7.82637ZM8.86073 10.8964C8.86073 10.2518 9.11679 9.6336 9.57259 9.17781C10.0284 8.72202 10.6466 8.46596 11.2912 8.46596C11.9357 8.46596 12.5539 8.72202 13.0097 9.17781C13.4655 9.6336 13.7216 10.2518 13.7216 10.8964C13.7216 11.541 13.4655 12.1592 13.0097 12.615C12.5539 13.0707 11.9357 13.3268 11.2912 13.3268C10.6466 13.3268 10.0284 13.0707 9.57259 12.615C9.11679 12.1592 8.86073 11.541 8.86073 10.8964Z" fill="#FBFBFB"/>
</svg>
