<svg width="225" height="129" viewBox="0 0 225 129" fill="none" xmlns="http://www.w3.org/2000/svg">
<path d="M213.021 53.5791L148.584 16.3772C145.905 14.8314 143.31 13.7658 140.843 13.1345C139.21 12.7179 137.632 12.489 136.128 12.4489C136.052 12.4489 135.984 12.4465 135.909 12.4465C135.835 12.4465 135.764 12.4489 135.69 12.4489C134.184 12.489 132.611 12.7179 130.977 13.1345C128.506 13.7658 125.912 14.8314 123.232 16.3772L112.58 22.5276L101.928 16.3772C99.2479 14.8314 96.6518 13.7658 94.1832 13.1345C92.5488 12.7179 90.9758 12.489 89.4701 12.4489C89.3957 12.4489 89.3214 12.4465 89.2471 12.4465C89.1727 12.4465 89.1043 12.4489 89.0299 12.4489C87.5242 12.489 85.9477 12.7179 84.3133 13.1345C81.8459 13.7658 79.251 14.8314 76.5723 16.3772L12.1352 53.5791C-3.83543 62.7999 -3.83543 77.8524 12.1352 87.072L76.5723 124.272C79.251 125.82 81.8459 126.883 84.3133 127.517C85.9477 127.931 87.5242 128.166 89.0299 128.2C89.1043 128.2 89.1727 128.205 89.2471 128.205C89.3214 128.205 89.3957 128.2 89.4701 128.2C90.9758 128.166 92.5488 127.931 94.1832 127.517C96.6518 126.883 99.2479 125.82 101.928 124.272L112.58 118.124L123.232 124.272C125.912 125.82 128.506 126.883 130.977 127.517C132.611 127.931 134.184 128.166 135.69 128.2C135.764 128.2 135.835 128.205 135.909 128.205C135.984 128.205 136.052 128.2 136.128 128.2C137.632 128.166 139.21 127.931 140.843 127.517C143.31 126.883 145.905 125.82 148.584 124.272L213.021 87.072C228.993 77.8524 228.993 62.7999 213.021 53.5791Z" fill="#FBC707"/>
<path d="M213.021 53.5793L148.584 16.3774C145.905 14.8316 143.31 13.766 140.843 13.1347C147.777 15.2717 152.269 22.3331 152.269 33.1434V45.4441L166.361 53.5793C182.333 62.8001 182.333 77.8526 166.361 87.0723L152.269 95.2086V107.507C152.269 118.318 147.777 125.374 140.843 127.517C143.31 126.883 145.905 125.82 148.584 124.272L213.021 87.0723C228.993 77.8526 228.993 62.8001 213.021 53.5793Z" fill="#00ADEF"/>
<path d="M72.8875 107.506V95.2056L58.7979 87.0727C42.8273 77.8519 42.8273 62.8006 58.7979 53.5786L72.8875 45.4434V33.1427C72.8875 22.3336 77.3835 15.2722 84.3138 13.1352C81.8464 13.7665 79.2515 14.8321 76.5728 16.3767L12.1357 53.5786C-3.83494 62.8006 -3.83494 77.8519 12.1357 87.0727L76.5728 124.272C79.2515 125.819 81.8464 126.882 84.3138 127.517C77.3835 125.374 72.8875 118.319 72.8875 107.506Z" fill="#FBC707"/>
<path d="M105.041 26.8811L112.58 22.5279L101.928 16.3776C99.2483 14.8317 96.6511 13.7662 94.1836 13.1349C99.6708 14.8258 103.63 19.6026 105.041 26.8811Z" fill="#F36717"/>
<path d="M94.1831 127.517C96.6517 126.883 99.2478 125.82 101.928 124.272L112.58 118.124L105.041 113.773C103.63 121.049 99.6703 125.822 94.1831 127.517Z" fill="#F36717"/>
<path d="M166.362 87.0726C182.333 77.8518 182.333 62.8004 166.362 53.5796L152.27 45.4433V95.209L166.362 87.0726Z" fill="#025C6E"/>
<path d="M105.041 113.773L72.8877 95.2056V107.506C72.8877 118.319 77.3836 125.374 84.314 127.517C85.9472 127.932 87.5249 128.165 89.0294 128.199C89.1038 128.199 89.1722 128.205 89.2477 128.205C89.3221 128.205 89.3952 128.199 89.4696 128.199C90.9753 128.165 92.5495 127.932 94.1838 127.517C99.671 125.823 103.63 121.05 105.041 113.773Z" fill="#EE2722"/>
<path d="M72.8877 33.1429V45.4436L105.041 26.8816C103.63 19.6032 99.671 14.8264 94.1838 13.1354C92.5495 12.7176 90.9765 12.4899 89.4696 12.4498C89.3964 12.4498 89.3221 12.4462 89.2477 12.4462C89.1722 12.4462 89.1038 12.4498 89.0306 12.4498C87.5249 12.4899 85.9483 12.7176 84.314 13.1354C77.3836 15.2724 72.8877 22.3338 72.8877 33.1429Z" fill="#EE2722"/>
<path d="M120.119 113.773L112.581 118.124L123.232 124.272C125.911 125.819 128.505 126.882 130.976 127.517C125.489 125.823 121.53 121.05 120.119 113.773Z" fill="#FBC707"/>
<path d="M130.977 13.1351C128.506 13.7664 125.912 14.832 123.232 16.3778L112.58 22.5282L120.119 26.8813C121.529 19.6029 125.49 14.8261 130.977 13.1351Z" fill="#FBC707"/>
<path d="M130.977 127.517C132.611 127.931 134.184 128.166 135.69 128.199C135.764 128.199 135.836 128.205 135.91 128.205C135.984 128.205 136.053 128.199 136.128 128.199C137.632 128.166 139.21 127.931 140.844 127.517C147.777 125.374 152.269 118.318 152.269 107.506V95.2086L120.119 113.773C121.529 121.049 125.489 125.822 130.977 127.517Z" fill="#045177"/>
<path d="M140.844 13.1351C139.209 12.7174 137.633 12.4896 136.127 12.4495C136.053 12.4495 135.984 12.4472 135.91 12.4472C135.836 12.4472 135.765 12.4495 135.69 12.4495C134.185 12.4896 132.611 12.7174 130.976 13.1351C125.489 14.8261 121.53 19.6029 120.119 26.8814L152.27 45.4434V33.1427C152.27 22.3335 147.776 15.2722 140.844 13.1351Z" fill="#045177"/>
<path d="M58.7982 53.5791C42.8264 62.7999 42.8264 77.8524 58.7982 87.0721L72.8878 95.2061V45.4439L58.7982 53.5791Z" fill="#DF970E"/>
<path d="M119.547 107.506V33.1427C119.547 30.8889 119.744 28.8002 120.118 26.8814L112.58 22.5283L105.041 26.8814C105.413 28.8002 105.613 30.8889 105.613 33.1427V107.506C105.613 109.763 105.413 111.851 105.041 113.773L112.58 118.124L120.118 113.773C119.744 111.851 119.547 109.763 119.547 107.506Z" fill="#BD3616"/>
<path d="M119.547 33.1429V107.507C119.547 109.763 119.744 111.851 120.118 113.774L152.269 95.2082V45.4436L120.118 26.8817C119.744 28.8004 119.547 30.8891 119.547 33.1429Z" fill="#032535"/>
<path d="M72.8877 95.2058L105.041 113.774C105.413 111.851 105.614 109.763 105.614 107.507V33.1429C105.614 30.8891 105.413 28.8004 105.041 26.8817L72.8877 45.4436V95.2058Z" fill="#B0151F"/>
<path d="M39.6646 0.577373C27.0324 0.577373 16.792 10.8177 16.792 23.4536C16.792 32.2897 21.8024 39.954 29.1387 43.7632L62.5149 24.4932C62.5302 24.1486 62.5373 23.8017 62.5373 23.4536C62.5373 10.8177 52.2969 0.577373 39.6646 0.577373Z" fill="#181210"/>
<path d="M62.5148 24.4933L29.1387 43.7633C32.2894 45.3988 35.8696 46.3228 39.6646 46.3228C51.9488 46.3228 61.9708 36.6429 62.5148 24.4933Z" fill="#150D00"/>
<path d="M186.853 66.4911L185.099 70.9163H188.01L190.652 64.6031C190.97 63.9717 191.115 63.2861 191.115 62.5828C191.115 61.378 190.669 60.3573 189.781 59.5265C188.947 58.7442 187.982 58.3559 186.87 58.3559C186.313 58.3559 185.759 58.4692 185.222 58.71C184.681 58.9318 184.219 59.2469 183.81 59.6729C183.034 60.4694 182.645 61.4347 182.645 62.5262C182.645 63.1375 182.774 63.7487 183.071 64.3033C183.35 64.8627 183.72 65.3252 184.202 65.6769C184.594 65.9743 184.981 66.1772 185.388 66.3082C185.775 66.4203 186.279 66.4734 186.853 66.4911ZM185.668 61.4146C185.999 61.0807 186.41 60.8954 186.87 60.9154C187.353 60.9154 187.781 61.0807 188.093 61.4146C188.427 61.7285 188.595 62.138 188.595 62.6407C188.595 63.1032 188.427 63.4915 188.093 63.8231C187.761 64.157 187.353 64.3258 186.87 64.3258C186.41 64.3258 185.999 64.157 185.668 63.8231C185.333 63.4915 185.167 63.1032 185.167 62.6206C185.167 62.138 185.333 61.7497 185.668 61.4146Z" fill="white"/>
<path d="M191.78 68.0054C191.952 68.1139 192.095 68.1706 192.262 68.2107C192.429 68.2449 192.726 68.2449 193.133 68.2449H196.434V70.9165H198.973V68.2449H199.993V65.8258H198.973V58.5981H196.525L192.154 64.7886C191.709 65.3998 191.428 65.8258 191.337 66.0288C191.245 66.2341 191.188 66.4914 191.188 66.7994C191.188 67.3363 191.391 67.7257 191.78 68.0054ZM196.434 62.766V65.8258H194.393L196.434 62.766Z" fill="white"/>
<path d="M202.029 68.2107C201.64 68.2107 201.289 68.3535 201.009 68.6332C200.712 68.9081 200.583 69.268 200.583 69.6563C200.583 70.0622 200.712 70.4103 201.009 70.6782C201.289 70.9531 201.64 71.1018 202.029 71.1018C202.437 71.1018 202.768 70.9531 203.068 70.6782C203.345 70.4103 203.494 70.0622 203.494 69.6728C203.494 69.268 203.345 68.9081 203.068 68.6166C202.788 68.3358 202.458 68.1871 202.029 68.2107Z" fill="white"/>
<path d="M210.239 64.4541C211.019 63.7118 211.409 62.8799 211.409 61.9347C211.409 61.4143 211.295 60.9152 211.039 60.4125C210.814 59.9499 210.498 59.544 210.094 59.2088C209.407 58.6695 208.648 58.3946 207.777 58.3946C207.165 58.3946 206.608 58.5232 206.051 58.8005C205.345 59.1722 204.828 59.7092 204.477 60.4125C204.217 60.9152 204.085 61.4887 204.085 62.1542H206.608C206.608 61.7825 206.719 61.4686 206.925 61.2491C207.146 61.006 207.426 60.8951 207.777 60.8951C208.091 60.8951 208.365 61.006 208.61 61.2656C208.831 61.4887 208.942 61.7494 208.942 62.0456C208.942 62.3973 208.811 62.6746 208.55 62.8799C208.459 62.9543 208.202 63.1372 207.756 63.4003C207.293 63.6941 207.068 64.1024 207.068 64.5827C207.068 64.9202 207.146 65.1763 207.311 65.3828C207.46 65.5822 207.74 65.771 208.111 65.9362C208.516 66.1026 208.811 66.3079 208.996 66.5133C209.182 66.7304 209.276 66.9935 209.276 67.3192C209.276 67.685 209.147 68.0048 208.888 68.2621C208.628 68.5252 208.311 68.6562 207.943 68.6562C207.496 68.6562 207.126 68.4674 206.865 68.1134C206.719 67.9081 206.646 67.6567 206.608 67.3192H204.085C204.123 68.5016 204.585 69.4846 205.46 70.2268C206.2 70.844 207.034 71.1555 207.959 71.1555C208.962 71.1555 209.831 70.8074 210.593 70.1194C210.965 69.7477 211.278 69.3194 211.479 68.8391C211.704 68.3541 211.797 67.8561 211.797 67.377C211.797 66.3079 211.278 65.325 210.239 64.4541Z" fill="white"/>
<path d="M201.995 82.0826C201.995 81.2306 202.727 79.385 202.727 78.1519C202.727 76.9293 202.009 76.429 201.036 76.429C200.473 76.429 199.647 76.5977 198.915 77.7259C198.75 76.7807 198.155 76.4148 197.347 76.4148C196.816 76.4148 196.128 76.5517 195.487 77.2833L195.654 76.4915H193.462L191.846 84.111H194.039L195.077 79.2198C195.304 78.4539 195.716 77.8002 196.31 77.8002C196.645 77.8002 196.768 78.1377 196.768 78.4716C196.768 78.6085 196.753 78.7336 196.722 78.854L195.61 84.111H197.804L198.839 79.2198C199.07 78.4539 199.482 77.8144 200.03 77.8144C200.395 77.8144 200.578 78.0917 200.578 78.5944C200.578 79.5691 199.89 81.4418 199.89 82.4791C199.89 83.3511 200.258 84.2019 201.432 84.2019C202.241 84.2019 202.97 83.7275 203.109 82.6336C203.015 82.6938 202.866 82.7245 202.606 82.7245C202.146 82.7245 201.995 82.4649 201.995 82.0826Z" fill="white"/>
<path d="M192.153 76.4918H191.402H191.037L191.297 75.287C191.511 74.2639 192.031 74.035 192.365 74.035C192.668 74.035 192.945 74.2037 192.945 74.5554C192.945 74.6899 192.929 74.815 192.911 74.9672H193.631C193.659 74.7831 193.673 74.5872 193.673 74.3406C193.673 73.347 192.805 72.6933 191.877 72.6933C190.871 72.6933 189.56 73.1015 189.103 75.287L188.849 76.4918H187.668L187.446 77.6777H188.597L186.948 83.9874C185.498 84.4299 184.326 84.8736 184.326 86.279C184.326 87.2667 185.195 87.9216 186.123 87.9216C187.131 87.9216 188.397 87.5098 188.852 85.3303L190.8 77.6777H191.402H191.928L192.153 76.4918ZM186.643 85.3763C186.447 86.279 186.095 86.5646 185.775 86.5646C185.441 86.5646 185.166 86.279 185.166 86.0643C185.166 85.2394 185.88 84.8134 186.841 84.4901L186.643 85.3763Z" fill="white"/>
<path d="M32.615 9.15846C32.5667 9.89598 32.4782 11.3439 32.4782 11.3439C32.4782 11.3439 36.3994 11.9776 38.6851 8.80445L45.1211 8.42094C45.3441 9.24696 46.1984 10.4553 49.3432 10.4069C49.3432 10.4069 50.7687 10.3586 51.3316 10.0069C51.3316 10.0069 50.2058 9.06406 50.0288 8.24393C49.9097 7.67279 49.9911 7.1819 50.2684 6.75945C50.2684 6.75945 47.8835 6.95887 47.3443 6.98247L32.3896 7.95954C32.3896 7.95954 32.6658 8.42094 32.615 9.15846Z" fill="white"/>
<path d="M48.4203 38.9703C47.6403 37.9306 47.6143 37.1247 47.6143 37.1247L47.6663 35.1965L29.489 35.9505C29.3096 38.8416 27.9785 39.9615 27.9785 39.9615C32.3635 40.4642 34.3342 38.084 35.0056 36.9713L42.139 36.6338C43.1503 40.1467 48.4203 38.9703 48.4203 38.9703Z" fill="white"/>
<path d="M31.5436 33.4456C34.4736 34.3459 39.0592 33.1801 39.0592 33.1801C40.3396 33.1423 50.2602 34.0793 49.9946 26.4928C49.7315 18.8993 41.3532 18.9771 41.3532 18.9771L42.0306 17.7346C43.0407 16.0837 43.1929 14.9178 43.1929 14.9178C43.2696 11.7978 38.6828 12.7383 38.1199 12.8893C37.5535 13.038 35.2288 13.3413 35.2288 13.3413C37.2196 15.0665 35.3775 16.9085 35.3775 16.9085L29.1009 25.7045C26.8105 29.4228 28.6124 32.5428 31.5436 33.4456ZM35.6029 27.8805C37.4084 23.7504 40.7502 20.1796 40.7502 20.1796C41.9161 20.6304 42.9699 22.3568 43.2696 24.4985C43.5693 26.6415 43.0407 29.083 41.7297 30.8117C40.4139 32.5428 38.9106 32.806 36.4313 32.052C33.9485 31.3038 35.6029 27.8805 35.6029 27.8805Z" fill="white"/>
<path d="M168.295 58.2696H161.073L157.56 74.5895C156.808 77.0994 155.5 79.0028 153.547 79.0028C152.393 79.0028 152.043 77.9514 152.043 76.7973C152.043 76.3949 152.092 75.9406 152.195 75.5441L155.909 58.2696H148.684L145.171 74.5895C144.945 75.6834 144.805 76.6829 144.779 77.5714C144.083 78.4577 143.211 79.0028 142.165 79.0028C140.763 79.0028 140.108 78.5521 140.108 77.149C140.108 76.6947 140.163 76.1955 140.311 75.5441L146.148 48.5626H138.935L136.199 61.0344V60.835C136.199 59.3812 134.993 58.2778 132.136 58.2778C123.41 58.2778 119.248 69.0339 119.248 75.7955C119.248 76.4315 119.284 77.0263 119.355 77.5797C118.641 78.617 117.738 79.3026 116.65 79.3026C115.245 79.3026 114.596 78.5521 114.596 77.149C114.596 76.6947 114.644 76.1955 114.794 75.5441L118.462 58.2696H111.236L110.632 61.1866V60.835C110.632 59.3812 109.429 58.2778 106.569 58.2778C97.843 58.2778 93.6739 69.0339 93.6798 75.7955C93.6833 77.8145 92.0572 79.0028 90.5668 79.0028C89.0611 79.0028 88.5608 78.1508 88.5608 76.8976C88.5608 74.0903 90.9692 68.0332 90.9692 63.9939C90.9692 59.983 88.6092 58.3262 85.4018 58.3262C83.8477 58.3262 81.6399 58.7298 79.5347 61.1371L82.3019 48.5626H75.0989L68.7916 77.549C68.1332 78.2523 67.1408 79.1315 65.6433 79.1315C64.1824 79.1315 63.5086 78.3514 63.5086 76.8917C63.5086 76.4256 63.557 75.9029 63.7175 75.2291L67.3508 58.3557L67.4074 58.0784L68.3137 53.8043H60.9326C60.9326 53.8043 60.2458 56.5491 60.2812 56.3839L60.2434 56.5644V56.5267V56.1986C60.2434 54.687 57.619 53.5447 54.6501 53.5447C48.849 53.5447 43.1648 59.7552 41.1528 66.1027C39.9987 69.7183 39.9267 72.9587 39.9303 75.4887C39.9303 75.8864 40.1215 79.3026 41.3499 81.1021C42.6632 83.0763 45.2204 83.9731 47.3456 83.9731C51.0427 83.9731 54.8672 81.4738 56.4815 79.0772C56.793 82.2019 58.6669 83.8669 61.5804 83.8669C63.2974 83.8669 65.7094 83.4315 68.0034 81.1741L67.3945 83.9731H74.6788L78.2296 67.2792C78.5281 65.954 80.0858 62.8918 82.0423 62.8918C83.2966 62.8918 83.8961 63.7945 83.8961 65.4513C83.8961 68.6338 81.6399 74.7889 81.6399 78.1992C81.6399 81.0573 83.1904 83.9731 87.553 83.9731C89.4777 83.9731 92.0348 83.317 94.3607 79.8914C95.497 82.7648 97.8913 83.9731 100.36 83.9731C103.918 83.9731 106.27 81.5588 107.824 79.2542C108.123 82.2621 109.929 83.9731 112.74 83.9731C114.664 83.9731 117.493 83.3076 119.998 80.0601C121.155 82.8049 123.501 83.9731 125.917 83.9731C129.48 83.9731 131.836 81.5588 133.341 79.2542C133.741 82.0627 135.55 83.9731 138.255 83.9731C140.086 83.9731 142.737 83.1955 145.148 80.4366C145.927 82.8108 147.839 83.9731 150.136 83.9731C152.244 83.9731 155.103 83.2191 157.612 79.1055C157.962 82.0627 159.765 83.9731 162.527 83.9731C165.233 83.9731 167.84 82.3105 168.093 78.6996C167.644 78.8541 167.392 79.0028 166.435 79.0028C165.033 79.0028 164.382 78.5521 164.382 77.149C164.382 76.6947 164.43 76.1955 164.581 75.5441L168.295 58.2696ZM56.6561 73.0956C55.6413 77.9797 51.8451 78.8176 50.337 78.8176C49.4001 78.8176 47.7339 78.7656 47.7339 74.7582C47.7339 72.1185 48.3286 66.9193 50.3854 62.8576C52.139 59.367 55.2082 56.7721 57.2497 56.7721C58.9147 56.7721 59.775 58.1268 59.775 58.7499L56.6561 73.0956ZM107.775 74.5895C107.172 77.4971 105.067 79.0028 103.61 79.0028C102.707 79.0028 101.105 78.9521 101.105 75.0922C101.105 70.3874 103.861 61.3884 108.123 61.3884C109.732 61.3884 110.18 62.6912 110.18 63.2942L107.775 74.5895ZM133.29 74.5895V74.8408C132.639 77.5974 130.582 79.0028 129.176 79.0028C128.274 79.0028 126.668 78.9521 126.668 75.0922C126.668 70.3874 129.428 61.3884 133.69 61.3884C135.196 61.3884 135.647 62.5401 135.747 63.1431L133.29 74.5895Z" fill="white"/>
<path d="M100.791 93.0145C100.791 92.2687 100.32 91.5406 99.4335 91.5406C98.4883 91.5406 97.739 92.1719 97.051 92.7631L97.3059 91.5406H94.4714L92.3887 101.376H95.2196L96.7937 93.903C97.2882 93.4523 97.6422 93.1549 98.231 93.1549C98.8222 93.1549 98.2712 94.4518 99.3733 94.4518C100.336 94.4518 100.791 93.7024 100.791 93.0145Z" fill="white"/>
<path d="M126.072 88.9242C126.072 88.0592 125.364 87.3465 124.497 87.3465C123.631 87.3465 122.943 88.0592 122.943 88.9242C122.943 89.7903 123.631 90.4783 124.497 90.4783C125.364 90.4783 126.072 89.7903 126.072 88.9242Z" fill="white"/>
<path d="M134.019 94.0175C133.902 92.2687 133.074 91.3636 131.52 91.3636C127.47 91.3636 126.189 96.0825 126.189 98.3482L126.2 98.4851C125.841 99.1388 125.287 99.5884 124.695 99.5884C124.141 99.5884 123.889 99.4102 123.889 98.8592C123.889 98.6857 123.907 98.4886 123.964 98.2302L125.383 91.5406H122.55L121.213 97.8561C120.916 98.8391 120.387 99.5884 119.619 99.5884C119.068 99.5884 118.811 99.4102 118.811 98.8592C118.811 98.6857 118.831 98.4886 118.891 98.2302L121.153 87.9981H118.239L117.279 92.5235V92.4468C117.279 91.8745 116.806 91.4414 115.682 91.4414C112.26 91.4414 110.626 95.6742 110.626 98.3281C110.626 98.393 110.632 98.4532 110.632 98.5193C110.324 99.1966 109.875 99.7052 109.289 99.7052C108.738 99.7052 108.484 99.4102 108.484 98.8592C108.484 98.6857 108.501 98.4886 108.561 98.2302L109.978 91.5406H107.143L106.93 92.5802V92.4468C106.93 91.8745 106.456 91.4414 105.333 91.4414C101.911 91.4414 100.277 95.6742 100.277 98.3281C100.277 100.671 101.56 101.495 102.893 101.495C104.29 101.495 105.216 100.59 105.824 99.6852C105.945 100.868 106.653 101.495 107.752 101.495C108.561 101.495 109.783 101.242 110.815 99.6993C111.218 100.999 112.212 101.495 113.243 101.495C114.639 101.495 115.565 100.59 116.157 99.6852C116.311 100.787 117.022 101.376 118.085 101.376C118.881 101.376 120.081 101.199 121.105 99.7442C121.31 100.962 122.138 101.495 123.158 101.495C123.976 101.495 125.311 101.236 126.395 99.6675C126.827 100.93 127.925 101.456 129.338 101.456C131.817 101.456 133.782 99.0763 134.019 95.2978C135.062 94.7278 135.653 93.5089 136.047 92.664H135.416C135.199 93.0345 134.708 93.8829 134.019 94.0175ZM105.808 97.8561C105.571 98.996 104.747 99.5884 104.176 99.5884C103.819 99.5884 103.19 99.5684 103.19 98.0544C103.19 96.2029 104.27 92.664 105.945 92.664C106.572 92.664 106.749 93.1726 106.749 93.4121L105.808 97.8561ZM116.134 97.8561V97.9541C115.879 99.0362 115.075 99.5884 114.522 99.5884C114.168 99.5884 113.54 99.5684 113.54 98.0544C113.54 96.2029 114.619 92.664 116.291 92.664C116.882 92.664 117.059 93.1147 117.099 93.3519L116.134 97.8561ZM132.348 95.5916C132.054 97.9139 131.089 99.6852 130.126 99.6852C129.377 99.6852 129.123 99.3878 129.123 98.0945C129.123 96.1651 130.283 92.5637 131.68 92.5637C132.171 92.5637 132.384 92.8599 132.428 93.6859C132.091 93.8428 131.874 94.178 131.874 94.7066C131.874 95.1963 132.034 95.4772 132.348 95.5916Z" fill="white"/>
</svg>
