<svg width="17" height="14" viewBox="0 0 17 14" fill="none" xmlns="http://www.w3.org/2000/svg">
<path d="M0.504595 1.70412L7.6046 8.91587C7.81464 9.12935 8.09519 9.25608 8.39195 9.27154C8.6887 9.287 8.98055 9.19009 9.211 8.99956L9.3022 8.91587L16.3974 1.709C16.4203 1.79837 16.4358 1.88965 16.4438 1.98281L16.4502 2.125V11.875C16.4503 12.285 16.2979 12.6798 16.0234 12.9804C15.7489 13.2811 15.3727 13.4652 14.9702 13.4959L14.8502 13.5H2.0502C1.64653 13.5001 1.25774 13.3453 0.961757 13.0665C0.665772 12.7878 0.48447 12.4057 0.454195 11.9969L0.450195 11.875V2.125C0.450195 2.0275 0.458195 1.93271 0.474195 1.84063L0.504595 1.70412ZM14.8502 0.5C14.9473 0.5 15.0419 0.508396 15.1342 0.525188L15.2702 0.556875L8.4542 7.47937L1.6358 0.55525C1.72433 0.530875 1.815 0.514625 1.9078 0.5065L2.0502 0.5H14.8502Z" fill="#201D1D"/>
</svg>
