<svg width="22" height="23" viewBox="0 0 22 23" fill="none" xmlns="http://www.w3.org/2000/svg">
<path id="Vector" d="M11 0.697754C8.82441 0.697754 6.69767 1.34289 4.88873 2.55159C3.07979 3.76028 1.66989 5.47825 0.83733 7.48823C0.00476612 9.49822 -0.213071 11.71 0.211367 13.8437C0.635804 15.9775 1.68345 17.9375 3.22183 19.4759C4.76021 21.0143 6.72022 22.0619 8.85401 22.4864C10.9878 22.9108 13.1995 22.693 15.2095 21.8604C17.2195 21.0279 18.9375 19.618 20.1462 17.809C21.3549 16.0001 22 13.8733 22 11.6978C22 10.2532 21.7155 8.82281 21.1627 7.48823C20.6099 6.15365 19.7996 4.94102 18.7782 3.91958C17.7567 2.89813 16.5441 2.08788 15.2095 1.53508C13.8749 0.982277 12.4445 0.697754 11 0.697754ZM8.8 16.6477V6.74775L15.4 11.6978L8.8 16.6477Z" fill="white"/>
</svg>
