<svg width="23" height="23" viewBox="0 0 23 23" fill="none" xmlns="http://www.w3.org/2000/svg">
<circle cx="11.2601" cy="11.0521" r="11.0521" fill="#181717"/>
<path d="M10.2273 12.399L13.0271 10.7806L10.2273 9.16225V12.399ZM16.4635 8.17503C16.5337 8.42858 16.5822 8.76844 16.6146 9.20001C16.6523 9.63158 16.6685 10.0038 16.6685 10.3275L16.7009 10.7806C16.7009 11.9621 16.6146 12.8306 16.4635 13.3862C16.3287 13.8718 16.0158 14.1847 15.5303 14.3195C15.2767 14.3896 14.8128 14.4382 14.1007 14.4706C13.3994 14.5083 12.7574 14.5245 12.164 14.5245L11.3063 14.5569C9.0459 14.5569 7.6379 14.4706 7.08226 14.3195C6.59674 14.1847 6.28385 13.8718 6.14899 13.3862C6.07885 13.1327 6.0303 12.7928 5.99794 12.3613C5.96017 11.9297 5.94399 11.5575 5.94399 11.2338L5.91162 10.7806C5.91162 9.59921 5.99794 8.73068 6.14899 8.17503C6.28385 7.68951 6.59674 7.37662 7.08226 7.24176C7.3358 7.17163 7.79974 7.12308 8.51183 7.09071C9.21314 7.05295 9.8551 7.03676 10.4485 7.03676L11.3063 7.00439C13.5666 7.00439 14.9746 7.09071 15.5303 7.24176C16.0158 7.37662 16.3287 7.68951 16.4635 8.17503Z" fill="#FBFBFB"/>
</svg>
