<svg width="24" height="20" viewBox="0 0 24 20" fill="none" xmlns="http://www.w3.org/2000/svg">
<path d="M0.0816001 1.8525L10.7316 12.9475C11.0467 13.2759 11.4675 13.4709 11.9126 13.4947C12.3578 13.5185 12.7955 13.3694 13.1412 13.0763L13.278 12.9475L23.9208 1.86C23.9552 1.9975 23.9784 2.13792 23.9904 2.28125L24 2.5V17.5C24.0002 18.1307 23.7715 18.7382 23.3598 19.2007C22.9481 19.6632 22.3838 19.9464 21.78 19.9938L21.6 20H2.4C1.79451 20.0002 1.21132 19.762 0.767342 19.3331C0.323365 18.9043 0.051412 18.3164 0.00600014 17.6875L0 17.5V2.5C0 2.35 0.012 2.20417 0.036 2.0625L0.0816001 1.8525ZM21.6 0C21.7456 0 21.8876 0.0129168 22.026 0.0387502L22.23 0.0875002L12.006 10.7375L1.7784 0.0849998C1.9112 0.0474998 2.0472 0.0224999 2.1864 0.00999987L2.4 0H21.6Z" fill="#201D1D"/>
</svg>
