<svg width="21" height="22" viewBox="0 0 21 22" fill="none" xmlns="http://www.w3.org/2000/svg">
<path d="M19.6732 16.678L15.1001 12.52C14.884 12.3233 14.5999 12.2183 14.3078 12.2274C14.0158 12.2364 13.7387 12.3587 13.5352 12.5684L10.8431 15.337C10.1951 15.2133 8.89232 14.8072 7.55132 13.4695C6.21032 12.1274 5.80419 10.8213 5.68382 10.1778L8.45019 7.48453C8.65991 7.28105 8.78222 7.00396 8.79125 6.71189C8.80028 6.41982 8.69531 6.1357 8.49857 5.91966L4.34169 1.34766C4.14487 1.13093 3.87131 0.999475 3.57911 0.9812C3.28692 0.962925 2.99911 1.05927 2.77682 1.24978L0.335567 3.34341C0.141067 3.53861 0.0249767 3.79841 0.00931721 4.07353C-0.00755779 4.35478 -0.329308 11.017 4.83669 16.1853C9.34344 20.6909 14.9887 21.0205 16.5434 21.0205C16.7707 21.0205 16.9102 21.0138 16.9473 21.0115C17.2222 20.9953 17.4816 20.8788 17.6763 20.6842L19.7688 18.2418C19.9601 18.0202 20.0571 17.7326 20.0393 17.4404C20.0214 17.1483 19.89 16.8747 19.6732 16.678Z" fill="#201D1D"/>
</svg>
